<?xml version="1.0" standalone="no"?>
<!DOCTYPE svg PUBLIC "-//W3C//DTD SVG 20010904//EN"
 "http://www.w3.org/TR/2001/REC-SVG-20010904/DTD/svg10.dtd">
<svg version="1.0" xmlns="http://www.w3.org/2000/svg"
 width="700.000000pt" height="700.000000pt" viewBox="0 0 700.000000 700.000000"
 preserveAspectRatio="xMidYMid meet">
<metadata>
Created by potrace 1.14, written by Peter Selinger 2001-2017
</metadata>
<g transform="translate(0.000000,700.000000) scale(0.100000,-0.100000)"
fill="#000000" stroke="none">
<path d="M315 6603 c14 -260 66 -427 195 -622 61 -94 180 -218 475 -500 109
-104 110 -105 111 -154 l2 -49 -26 24 c-42 38 -131 120 -202 187 -36 33 -68
61 -71 61 -7 0 -4 -91 6 -180 29 -254 134 -422 474 -757 l196 -192 -35 -15
c-39 -16 -26 -24 -149 91 -24 24 -47 41 -49 38 -3 -3 -6 -51 -7 -107 l-2 -102
-29 -12 c-16 -7 -128 -55 -249 -105 -121 -51 -274 -120 -340 -153 -149 -76
-373 -209 -423 -252 -37 -32 -87 -118 -96 -166 -6 -34 25 -99 60 -127 29 -23
31 -23 219 -17 105 4 210 9 235 11 25 2 95 6 155 9 61 3 139 8 175 11 81 6
178 12 295 20 50 3 113 8 140 10 28 2 86 7 130 11 95 7 135 25 135 58 0 30
-15 34 -131 30 -668 -23 -1155 -29 -1164 -14 -4 6 -1 18 6 25 8 6 115 49 239
94 124 46 234 87 245 91 24 11 338 127 448 165 l79 28 25 -29 c56 -65 105
-115 228 -229 136 -126 273 -253 291 -270 6 -5 31 -29 56 -52 25 -23 49 -46
52 -52 6 -9 -6 -44 -20 -60 -2 -2 -19 8 -39 23 l-35 27 0 -100 c0 -94 -2 -105
-38 -188 -114 -259 -186 -480 -230 -698 -3 -16 -5 -79 -5 -140 1 -122 14 -166
60 -210 67 -62 258 -74 359 -22 81 41 193 136 360 304 128 127 158 152 170
143 12 -10 14 -8 14 17 0 27 34 82 44 72 2 -2 7 -33 10 -68 9 -84 20 -103 113
-191 310 -294 398 -377 413 -387 16 -11 20 -8 34 27 8 21 24 58 35 82 96 210
201 471 196 486 -4 9 -32 39 -63 66 -55 48 -169 148 -262 232 -25 22 -65 58
-89 80 -24 21 -54 48 -66 59 -113 101 -186 166 -280 250 -236 210 -265 238
-265 249 0 7 6 20 14 31 12 17 48 -12 467 -375 250 -217 484 -420 520 -452
l67 -58 -8 37 c-4 21 -11 54 -14 73 l-6 35 45 -45 c36 -35 43 -48 38 -68 -5
-22 -4 -23 13 -14 14 8 25 6 46 -10 35 -25 35 -30 -3 -66 l-31 -29 77 -179
c42 -99 83 -192 90 -209 17 -41 38 -89 69 -159 l26 -59 28 25 c15 15 50 48 78
75 28 26 83 78 122 115 l70 66 94 -47 c51 -26 120 -53 153 -61 33 -7 65 -15
70 -16 56 -13 139 -21 200 -19 92 3 171 38 213 93 24 32 27 44 26 111 0 85
-40 235 -100 381 -54 131 -58 115 52 216 160 145 238 227 257 267 12 25 19 65
20 115 1 42 6 80 10 83 4 3 90 3 190 1 298 -9 806 -8 892 1 177 18 289 39 400
72 117 36 171 70 226 142 111 146 78 216 -132 277 -69 19 -466 112 -562 130
-298 57 -463 90 -466 92 -2 2 12 27 31 56 41 62 84 166 92 223 3 22 6 74 6
115 l1 75 50 34 c28 19 114 83 192 143 78 59 182 138 231 175 287 219 476 395
521 488 63 129 24 257 -93 302 -39 14 -52 15 -106 4 -58 -12 -151 -38 -276
-77 -30 -9 -62 -18 -70 -19 -8 -1 -22 -5 -30 -9 -8 -3 -48 -17 -88 -30 l-73
-24 199 197 c206 202 273 285 342 421 40 80 83 206 95 280 4 25 9 54 12 65 2
11 7 65 10 120 l5 100 -53 -50 c-30 -27 -72 -66 -94 -86 -40 -36 -270 -245
-291 -264 -6 -5 -50 -46 -99 -90 -48 -44 -93 -85 -99 -90 -6 -6 -117 -107
-246 -225 -129 -117 -280 -254 -334 -304 -54 -50 -106 -98 -116 -106 -13 -12
-18 -39 -23 -120 -5 -85 -10 -107 -24 -118 -42 -29 -52 -42 -47 -57 4 -8 15
-15 25 -15 24 0 24 -16 -2 -108 -28 -100 -52 -155 -100 -224 l-39 -58 -3 -156
-2 -155 -30 -19 -31 -19 2 140 c1 76 -1 141 -5 143 -3 2 -33 -21 -66 -51 -33
-31 -100 -92 -149 -137 -167 -152 -193 -181 -205 -234 -7 -26 -10 -62 -7 -79
5 -27 3 -32 -23 -41 -24 -8 -31 -7 -35 5 -11 28 -6 101 11 154 19 59 36 77
375 404 140 135 160 158 191 225 61 130 101 331 95 482 l-3 77 -70 -66 c-38
-35 -97 -90 -130 -121 -33 -30 -92 -85 -131 -121 -39 -36 -91 -85 -116 -108
l-45 -42 0 157 c1 147 -8 355 -17 412 -2 14 -7 50 -11 80 -30 258 -97 498
-191 683 -107 214 -168 265 -336 283 -138 15 -194 -42 -325 -326 -114 -247
-248 -592 -277 -713 -17 -71 39 8 154 218 122 223 280 463 352 537 64 66 84
63 109 -17 10 -33 21 -75 24 -94 3 -19 7 -43 10 -55 8 -34 16 -78 21 -116 2
-19 6 -46 9 -60 3 -14 7 -43 10 -65 3 -22 7 -53 10 -70 3 -16 7 -50 10 -75 3
-25 10 -79 15 -120 5 -41 12 -109 16 -150 3 -41 7 -82 9 -90 2 -8 6 -51 9 -95
4 -44 9 -100 11 -125 36 -389 29 -504 -37 -584 -53 -64 -100 -43 -223 99 -72
83 -89 99 -180 168 -145 109 -311 198 -580 310 -590 244 -1265 466 -1501 492
-27 3 -60 8 -74 10 -14 3 -56 8 -95 11 -38 4 -83 8 -100 10 -54 6 -240 6 -275
0 -31 -6 -40 -2 -81 36 -57 54 -225 207 -251 230 -11 9 -59 53 -108 98 -49 45
-99 91 -112 102 -13 11 -43 38 -68 61 -68 63 -259 238 -309 283 -24 21 -51 46
-60 54 -9 8 -26 23 -38 34 l-22 18 4 -69z m1358 -1103 c56 -13 57 -14 58 -49
4 -124 11 -201 25 -279 5 -25 3 -24 -35 14 -46 47 -49 58 -55 174 -5 84 -5 85
-45 123 -44 40 -52 53 -23 38 9 -5 43 -14 75 -21z m4901 -29 c7 -11 -37 -54
-129 -127 -120 -95 -249 -193 -252 -191 -1 2 7 35 17 75 10 39 22 98 25 129 4
32 10 61 14 66 24 25 313 68 325 48z m-4694 -30 c186 -52 575 -165 679 -198
101 -31 684 -239 736 -262 11 -5 47 -19 80 -32 105 -39 169 -76 214 -123 25
-25 41 -49 37 -53 -4 -5 -197 -8 -429 -9 -232 0 -433 -3 -447 -6 -14 -4 -52
-9 -85 -13 -32 -4 -67 -9 -77 -10 -17 -4 -52 21 -114 80 -12 11 -50 47 -85 80
-163 151 -307 285 -335 311 -17 16 -81 76 -142 133 -61 56 -119 110 -129 118
-21 17 -21 17 97 -16z m4115 -116 c-47 -40 -58 -43 -53 -13 2 14 15 26 38 34
55 20 58 16 15 -21z m-4205 -374 c28 -22 67 -61 87 -88 20 -26 79 -89 132
-139 l95 -91 -41 -10 c-40 -10 -42 -9 -88 34 -26 25 -49 43 -51 40 -3 -2 -5
-30 -5 -61 -1 -52 -4 -58 -26 -67 -14 -5 -27 -8 -29 -6 -2 2 -5 48 -7 103 -3
96 -4 101 -40 150 -31 43 -87 152 -87 169 0 11 13 3 60 -34z m1140 -497 c0 -2
-9 -8 -21 -14 -15 -9 -24 -8 -35 0 -7 7 -12 16 -9 19 4 7 65 2 65 -5z m-544
-116 c22 -42 27 -67 27 -120 -1 -85 -30 -151 -116 -261 -35 -45 -69 -92 -75
-104 -14 -26 -15 -72 -3 -92 9 -14 -23 -81 -38 -81 -4 0 -18 18 -30 41 -36 63
-25 126 36 213 20 28 31 51 25 55 -36 22 -271 256 -265 262 5 5 22 11 38 15
32 6 24 12 224 -173 52 -47 57 -50 73 -36 35 31 68 115 68 171 0 43 -6 63 -29
97 l-30 44 27 10 c40 14 40 15 68 -41z m3243 40 c-2 -2 -21 -19 -42 -37 -25
-24 -37 -30 -37 -19 0 15 70 70 79 62 2 -2 2 -5 0 -6z m106 -427 c39 -11 111
-31 160 -45 226 -62 351 -98 490 -141 83 -26 166 -52 185 -57 64 -18 90 -37
90 -63 0 -19 -5 -25 -22 -26 -57 -2 -425 -8 -892 -13 -482 -5 -508 -5 -495 12
8 9 17 19 21 22 12 9 219 202 293 272 40 38 76 66 85 63 8 -2 47 -13 85 -24z
m-2904 -33 c1 -76 9 -203 14 -215 9 -27 -24 -11 -58 26 -35 39 -44 64 -51 133
-4 41 -2 46 39 76 45 32 55 28 56 -20z m2059 -36 c43 -90 22 -167 -66 -246
-35 -30 -52 -39 -89 -41 -25 -1 -45 -2 -45 -1 0 0 25 28 56 60 98 105 110 150
59 227 l-34 50 32 14 c39 17 55 5 87 -63z m-619 -140 c-12 -23 -78 -69 -111
-77 -50 -12 -105 -13 -124 -3 -19 10 -19 11 0 21 14 8 218 72 242 77 1 0 -2
-8 -7 -18z m-971 -115 c20 -16 84 -96 97 -122 6 -11 18 -60 27 -110 10 -49 19
-99 22 -110 3 -13 -9 -4 -36 25 -48 53 -70 90 -75 130 -2 16 -16 45 -31 65
-15 20 -30 55 -34 78 -11 57 -2 70 30 44z m374 -181 l33 -14 -24 -123 c-13
-68 -25 -135 -28 -149 -11 -58 -15 -73 -18 -77 -3 -2 -19 8 -36 23 -23 19 -30
32 -27 50 4 23 45 232 51 264 2 8 4 21 4 28 1 15 4 15 45 -2z m798 -105 c12
-1 3 -14 -30 -43 -26 -24 -49 -45 -52 -48 -3 -3 -43 -39 -90 -80 -46 -41 -92
-82 -101 -90 -9 -8 -51 -46 -95 -85 -43 -38 -102 -91 -130 -117 -28 -27 -55
-48 -60 -48 -5 0 -21 10 -36 23 l-26 23 61 51 c34 29 73 62 87 75 14 13 57 50
95 83 39 33 72 62 75 65 3 3 37 32 75 65 39 33 72 62 75 65 44 44 80 66 105
64 17 -1 38 -3 47 -3z m546 -34 c-29 -25 -212 -195 -312 -289 -34 -32 -63 -58
-66 -58 -3 0 -13 13 -23 29 l-16 28 101 94 c56 52 131 122 167 156 64 61 67
63 121 63 l55 0 -27 -23z m-2594 -270 c179 -167 194 -182 211 -222 28 -69 29
-104 4 -131 -12 -13 -25 -24 -28 -24 -3 0 -7 18 -8 40 -4 58 -33 108 -99 167
-33 29 -98 89 -146 135 l-86 83 14 34 c8 18 18 30 22 26 4 -4 56 -53 116 -108z
m2130 -122 c6 -27 1 -36 -43 -78 -58 -55 -67 -78 -71 -172 -1 -38 -3 -92 -5
-120 -1 -27 0 -53 2 -58 2 -4 25 13 51 37 26 24 67 63 91 85 24 23 47 38 51
34 8 -9 52 -168 70 -253 6 -30 10 -83 8 -118 l-3 -62 -37 19 c-32 18 -205 137
-218 151 -3 3 -22 18 -43 33 -28 22 -36 33 -32 50 3 12 7 85 9 163 2 121 6
147 25 187 24 49 121 151 132 139 4 -4 10 -21 13 -37z m-2308 -102 c28 -27 99
-93 158 -148 l108 -99 -28 -25 c-23 -19 -138 -121 -198 -176 -6 -6 -49 -44
-96 -85 -46 -41 -93 -83 -105 -93 -28 -26 -90 -57 -114 -57 -18 0 -20 5 -16
41 8 79 55 231 142 458 48 127 90 231 93 231 3 0 28 -21 56 -47z"/>
<path d="M3511 2438 c-11 -30 -87 -212 -101 -243 -5 -11 -28 -65 -51 -120 -45
-109 -51 -125 -98 -234 l-31 -75 69 -68 c38 -37 72 -68 74 -68 5 0 14 45 22
110 3 25 10 68 15 95 5 28 12 70 15 95 10 76 21 104 60 158 20 29 38 52 39 52
1 0 21 -28 43 -62 27 -41 43 -79 46 -108 5 -44 23 -155 31 -195 2 -12 7 -46
11 -78 4 -31 11 -59 14 -62 4 -2 38 27 76 65 l68 69 -96 228 c-52 125 -118
282 -146 348 -46 111 -50 118 -60 93z"/>
<path d="M3508 2033 c-11 -12 -30 -106 -62 -303 -26 -157 -49 -296 -52 -310
-2 -14 -7 -57 -10 -97 -6 -65 -4 -75 19 -115 44 -75 72 -93 144 -89 28 1 81
55 103 104 19 42 19 91 1 192 -6 33 -13 78 -16 100 -3 22 -14 90 -25 150 -10
61 -21 126 -24 145 -3 19 -7 44 -10 55 -2 11 -7 40 -10 65 -11 74 -11 76 -27
100 -14 21 -15 21 -31 3z"/>
<path d="M1660 722 c-6 -2 -10 -77 -10 -198 l0 -194 33 -1 c37 0 3587 0 3665
0 l52 1 0 195 c0 179 -1 195 -17 196 -60 3 -3715 3 -3723 1z"/>
</g>
</svg>
